<svg width="728" height="209" viewBox="0 0 728 209" fill="none" xmlns="http://www.w3.org/2000/svg">
<path d="M206.438 171.938V107.312C206.438 104.479 205.833 102.042 204.625 100C203.458 97.9583 201.979 96.9375 200.188 96.9375V94.125C200.771 94.0417 205.417 91.4375 214.125 86.3125C214.417 86.3958 214.75 86.5 215.125 86.625C215.5 86.7083 215.896 86.8333 216.312 87C217.146 87.2917 218.271 88.125 219.688 89.5C221.104 90.875 221.812 92.4583 221.812 94.25C222.312 94 223.75 93.1875 226.125 91.8125C232.458 88.2292 236.375 86.4375 237.875 86.4375C239.375 86.4375 241.042 87.2083 242.875 88.75C244.708 90.2917 246.083 92.125 247 94.25C247.083 94.2083 247.562 93.9583 248.438 93.5C249.312 93.0417 250.583 92.3958 252.25 91.5625C258.917 88.1458 262.938 86.4375 264.312 86.4375C266.146 86.4375 267.917 87.2917 269.625 89C271.333 90.7083 272.75 92.75 273.875 95.125C275 97.5 275.562 99.6875 275.562 101.688V166.062C275.562 170.812 277.646 173.583 281.812 174.375V177.188L267.875 185C266 184.25 264.25 183 262.625 181.25C261 179.5 260.188 177.854 260.188 176.312V113.562C260.188 108.438 259.354 104.875 257.688 102.875C256.021 100.875 253.021 99.7917 248.688 99.625V166.062C248.688 170.812 250.771 173.583 254.938 174.375V177.188L241 185C239.125 184.25 237.375 183 235.75 181.25C234.125 179.5 233.312 177.854 233.312 176.312V113.562C233.312 108.188 232.521 104.521 230.938 102.562C229.354 100.604 226.312 99.625 221.812 99.625V165.312C221.812 168.438 222.146 170.688 222.812 172.062C223.479 173.438 224.896 174.125 227.062 174.125V178.062L200.812 189.125L198.75 185C200.625 185 202.417 183.896 204.125 181.688C205.667 179.604 206.438 176.354 206.438 171.938ZM330.625 120.625V171.438C330.625 174.646 329.188 179.292 326.312 185.375C325.188 187.708 323.875 190.188 322.375 192.812C320.875 195.438 319.354 197.896 317.812 200.188C316.271 202.521 314.833 204.417 313.5 205.875C312.208 207.333 311.188 208.062 310.438 208.062C309.021 208.062 307.229 207.75 305.062 207.125C302.938 206.542 300.75 205.792 298.5 204.875C296.292 203.958 294.333 203.083 292.625 202.25L288.938 200.375V196.5H293.25C295.5 196.5 297.979 195.646 300.688 193.938C303.396 192.229 306.042 189.792 308.625 186.625C311.208 183.5 313.417 179.833 315.25 175.625C305.667 180.167 300.125 182.438 298.625 182.438C296.875 182.438 295.208 181.646 293.625 180.062C292.083 178.479 290.812 176.438 289.812 173.938C288.854 171.438 288.375 168.812 288.375 166.062V130.875C288.375 126.125 286.292 123.354 282.125 122.562V119.75L296.062 111.938C297.938 112.688 299.688 113.938 301.312 115.688C302.938 117.438 303.75 119.083 303.75 120.625V155.312C303.75 161.271 304.688 165.25 306.562 167.25C308.438 169.25 311.333 170.25 315.25 170.25V130.875C315.25 125.625 313.5 122.667 310 122V119.188L322.938 111.938C324.812 112.688 326.562 113.938 328.188 115.688C329.812 117.438 330.625 119.083 330.625 120.625ZM376.688 171.938V107.312C376.688 104.479 376.083 102.042 374.875 100C373.708 97.9583 372.229 96.9375 370.438 96.9375V94.125C371.021 94.0417 375.667 91.4375 384.375 86.3125C384.667 86.3958 385 86.5 385.375 86.625C385.75 86.7083 386.146 86.8333 386.562 87C387.396 87.2917 388.521 88.125 389.938 89.5C391.354 90.875 392.062 92.4583 392.062 94.25C392.562 94 394 93.1875 396.375 91.8125C402.708 88.2292 406.625 86.4375 408.125 86.4375C409.625 86.4375 411.292 87.2083 413.125 88.75C414.958 90.2917 416.333 92.125 417.25 94.25C417.333 94.2083 417.812 93.9583 418.688 93.5C419.562 93.0417 420.833 92.3958 422.5 91.5625C429.167 88.1458 433.188 86.4375 434.562 86.4375C436.396 86.4375 438.167 87.2917 439.875 89C441.583 90.7083 443 92.75 444.125 95.125C445.25 97.5 445.812 99.6875 445.812 101.688V166.062C445.812 170.812 447.896 173.583 452.062 174.375V177.188L438.125 185C436.25 184.25 434.5 183 432.875 181.25C431.25 179.5 430.438 177.854 430.438 176.312V113.562C430.438 108.438 429.604 104.875 427.938 102.875C426.271 100.875 423.271 99.7917 418.938 99.625V166.062C418.938 170.812 421.021 173.583 425.188 174.375V177.188L411.25 185C409.375 184.25 407.625 183 406 181.25C404.375 179.5 403.562 177.854 403.562 176.312V113.562C403.562 108.188 402.771 104.521 401.188 102.562C399.604 100.604 396.562 99.625 392.062 99.625V165.312C392.062 168.438 392.396 170.688 393.062 172.062C393.729 173.438 395.146 174.125 397.312 174.125V178.062L371.062 189.125L369 185C370.875 185 372.667 183.896 374.375 181.688C375.917 179.604 376.688 176.354 376.688 171.938ZM489.875 112.062C490.333 112.062 491.396 112.708 493.062 114C494.771 115.292 496.479 117.125 498.188 119.5C499.896 121.875 500.75 124.167 500.75 126.375V147.875C500.75 149.417 498.5 151.292 494 153.5C491.708 154.625 489.104 155.771 486.188 156.938C483.271 158.104 480.646 159.083 478.312 159.875C475.979 160.667 474.542 161.062 474 161.062C474 167.604 476.854 171.667 482.562 173.25C485.271 173.917 488.646 174.25 492.688 174.25V177.938C478.646 182.646 471.167 185 470.25 185C468.583 185 466.833 184.167 465 182.5C463.167 180.792 461.625 178.562 460.375 175.812C459.125 173.062 458.5 170.062 458.5 166.812V123.812C458.5 123.562 459.458 123.021 461.375 122.188C463.333 121.312 465.771 120.312 468.688 119.188C471.604 118.062 474.562 116.958 477.562 115.875C480.604 114.75 483.271 113.833 485.562 113.125C487.854 112.417 489.292 112.062 489.875 112.062ZM485.375 132.375C485.375 130.042 484.833 128.021 483.75 126.312C482.625 124.646 481.188 123.812 479.438 123.812C477.729 123.812 475.875 124.458 473.875 125.75V155.312C481.542 153.188 485.375 148.583 485.375 141.5V132.375ZM544.25 112.062C544.708 112.062 545.771 112.708 547.438 114C549.146 115.292 550.854 117.125 552.562 119.5C554.271 121.875 555.125 124.167 555.125 126.375V147.875C555.125 149.417 552.875 151.292 548.375 153.5C546.083 154.625 543.479 155.771 540.562 156.938C537.646 158.104 535.021 159.083 532.688 159.875C530.354 160.667 528.917 161.062 528.375 161.062C528.375 167.604 531.229 171.667 536.938 173.25C539.646 173.917 543.021 174.25 547.062 174.25V177.938C533.021 182.646 525.542 185 524.625 185C522.958 185 521.208 184.167 519.375 182.5C517.542 180.792 516 178.562 514.75 175.812C513.5 173.062 512.875 170.062 512.875 166.812V123.812C512.875 123.562 513.833 123.021 515.75 122.188C517.708 121.312 520.146 120.312 523.062 119.188C525.979 118.062 528.938 116.958 531.938 115.875C534.979 114.75 537.646 113.833 539.938 113.125C542.229 112.417 543.667 112.062 544.25 112.062ZM539.75 132.375C539.75 130.042 539.208 128.021 538.125 126.312C537 124.646 535.562 123.812 533.812 123.812C532.104 123.812 530.25 124.458 528.25 125.75V155.312C535.917 153.188 539.75 148.583 539.75 141.5V132.375ZM579 98.75H582.625V113.938H589.125L587.875 120.25H582.625V166.062C582.625 171.229 584.375 174.167 587.875 174.875V177.688L574.938 185C573.062 184.25 571.312 183 569.688 181.25C568.062 179.5 567.25 177.854 567.25 176.312V120.375H562L563.25 115C565 115 567.021 114.188 569.312 112.562C571.604 110.938 573.688 108.875 575.562 106.375C577.438 103.875 578.583 101.333 579 98.75ZM593.438 96.0625V88.25C593.438 88.125 593.958 87.8333 595 87.375C596.083 86.9167 597.333 86.4167 598.75 85.875C600.208 85.3333 601.521 84.875 602.688 84.5C603.896 84.0833 604.646 83.875 604.938 83.875C605.521 83.875 606.333 84.6042 607.375 86.0625C608.417 87.5208 608.938 89.0208 608.938 90.5625V99.875C608.938 100 608.417 100.292 607.375 100.75C606.375 101.208 605.188 101.708 603.812 102.25C602.438 102.792 601.146 103.271 599.938 103.688C598.729 104.062 597.938 104.25 597.562 104.25C596.562 104.25 595.625 103.396 594.75 101.688C593.875 99.9792 593.438 98.1042 593.438 96.0625ZM610.75 120.75V166.062C610.75 171.229 612.5 174.167 616 174.875V177.688L603.062 185C601.188 184.25 599.438 183 597.812 181.25C596.188 179.5 595.375 177.854 595.375 176.312V131C595.375 125.75 593.625 122.792 590.125 122.125V119.312L603.062 112.062C604.938 112.812 606.688 114.062 608.312 115.812C609.938 117.562 610.75 119.208 610.75 120.75ZM623.5 176.312V132.875C623.5 130.083 622.896 127.667 621.688 125.625C620.521 123.583 619.042 122.562 617.25 122.562V119.75C617.833 119.625 622.479 117.021 631.188 111.938C631.521 112.021 631.875 112.125 632.25 112.25C632.625 112.333 633.021 112.458 633.438 112.625C634.271 112.917 635.375 113.75 636.75 115.125C638.167 116.5 638.875 118.083 638.875 119.875C639.5 119.5 640.958 118.688 643.25 117.438C649.583 113.854 653.333 112.062 654.5 112.062C656.333 112.062 658.104 112.917 659.812 114.625C661.562 116.333 662.979 118.375 664.062 120.75C665.188 123.083 665.75 125.25 665.75 127.25V166.062C665.75 170.771 667.854 173.542 672.062 174.375V177.188L658.062 185C656.188 184.25 654.438 183 652.812 181.25C651.188 179.5 650.375 177.854 650.375 176.312V139.188C650.375 134.396 649.833 130.75 648.75 128.25C647.708 125.708 645.833 124.438 643.125 124.438L638.875 125.25V166.062C638.875 171.229 640.625 174.167 644.125 174.875V177.688L631.188 185C629.312 184.25 627.562 183 625.938 181.25C624.312 179.5 623.5 177.854 623.5 176.312ZM678.5 123.938C678.5 123.604 679.417 123 681.25 122.125C683.125 121.208 685.479 120.188 688.312 119.062C691.146 117.896 694.062 116.792 697.062 115.75C700.104 114.667 702.812 113.792 705.188 113.125C707.562 112.417 709.167 112.062 710 112.062C711.417 112.062 712.958 112.979 714.625 114.812C716.333 116.604 717.792 118.917 719 121.75C720.25 124.583 720.875 127.583 720.875 130.75V171.438C720.875 174.646 719.438 179.292 716.562 185.375C715.438 187.708 714.125 190.188 712.625 192.812C711.125 195.438 709.583 197.896 708 200.188C706.458 202.521 705.021 204.417 703.688 205.875C702.396 207.333 701.375 208.062 700.625 208.062C699.208 208.062 697.417 207.75 695.25 207.125C693.125 206.542 690.958 205.792 688.75 204.875C686.542 203.958 684.583 203.083 682.875 202.25L679.125 200.375V196.5H683.5C685.75 196.5 688.229 195.646 690.938 193.938C693.646 192.229 696.292 189.792 698.875 186.625C701.458 183.5 703.667 179.833 705.5 175.625C695.917 180.167 690.375 182.438 688.875 182.438C687.125 182.438 685.458 181.646 683.875 180.062C682.292 178.479 681 176.438 680 173.938C679 171.438 678.5 168.812 678.5 166.062V123.938ZM705.5 170.25V135.062C705.5 127.562 703.542 123.812 699.625 123.812C697.583 123.812 695.708 124.5 694 125.875V155.312C694 161.271 694.938 165.25 696.812 167.25C698.688 169.25 701.583 170.25 705.5 170.25Z" fill="white"/>
<path d="M86.2069 30.6643C38.5966 30.6643 0 66.5036 0 110.714C0 127.007 5.25517 142.154 14.2586 154.796C13.0759 169.404 9.67241 189.979 0 200C0 200 29.2069 195.746 49.2172 183.389C49.2379 183.375 49.2483 183.354 49.2655 183.343C55.4517 179.393 62.4 174.782 64.1 173.404C65.1379 171.914 67.131 171.464 68.6793 172.436C69.7069 173.082 70.3586 174.264 70.3621 175.507C70.3724 177.586 70.3345 178.164 57.7724 186.286C66.6759 189.179 76.2379 190.764 86.2034 190.764C133.814 190.764 172.41 154.925 172.41 110.714C172.41 66.5036 133.817 30.6643 86.2069 30.6643Z" fill="#0391FD"/>
<path d="M200 80.05C200 35.8393 161.403 0 113.793 0C79.4138 0 49.7414 18.6929 35.9 45.7286C50.0621 36.2607 67.4241 30.6643 86.2069 30.6643C133.817 30.6643 172.414 66.5036 172.414 110.714C172.414 127.625 166.752 143.3 157.114 156.225C176.421 165.886 200 169.336 200 169.336C190.328 159.318 186.924 138.743 185.741 124.132C194.745 111.489 200 96.3429 200 80.05Z" fill="#0F71D3"/>
<path d="M112.069 89.2857H63.7931C61.8896 89.2857 60.3448 87.6893 60.3448 85.7143C60.3448 83.7393 61.8896 82.1429 63.7931 82.1429H112.069C113.972 82.1429 115.517 83.7393 115.517 85.7143C115.517 87.6893 113.972 89.2857 112.069 89.2857Z" fill="white"/>
<path d="M131.034 114.286H44.8276C42.9241 114.286 41.3793 112.689 41.3793 110.714C41.3793 108.739 42.9241 107.143 44.8276 107.143H131.034C132.938 107.143 134.483 108.739 134.483 110.714C134.483 112.689 132.938 114.286 131.034 114.286Z" fill="white"/>
<path d="M131.034 139.286H44.8276C42.9241 139.286 41.3793 137.689 41.3793 135.714C41.3793 133.739 42.9241 132.143 44.8276 132.143H131.034C132.938 132.143 134.483 133.739 134.483 135.714C134.483 137.689 132.938 139.286 131.034 139.286Z" fill="white"/>
</svg>
